<svg xmlns="http://www.w3.org/2000/svg" width="25" height="25">
    <path d="M12.598.36C5.709.36.148 5.92.148 12.81c0 5.477 3.57 10.125 8.549 11.785.664.083.83-.25.83-.581v-2.158c-3.486.747-4.233-1.66-4.233-1.66-.581-1.411-1.41-1.826-1.41-1.826-1.163-.747.082-.747.082-.747 1.245.083 1.909 1.245 1.909 1.245 1.079 1.909 2.905 1.328 3.652.996.083-.83.415-1.328.83-1.66-2.74-.332-5.644-1.41-5.644-6.142 0-1.327.498-2.49 1.245-3.32-.166-.331-.581-1.576.083-3.32 0 0 1.079-.331 3.403 1.246.996-.25 2.075-.415 3.154-.415 1.078 0 2.157.166 3.153.415 2.407-1.577 3.403-1.245 3.403-1.245.664 1.743.25 2.988.083 3.32.83.83 1.245 1.992 1.245 3.32 0 4.813-2.905 5.81-5.644 6.141.415.415.83 1.162.83 2.324v3.403c0 .332.25.747.83.58a12.366 12.366 0 0 0 8.466-11.785C25.047 5.921 19.486.36 12.598.36z"
          clip-rule="evenodd" fill="#fff" fill-rule="evenodd"/>
</svg>