<svg xmlns="http://www.w3.org/2000/svg" viewBox="0 0 187.17 143.55">
  <g fill="#ecb84c">
    <path d="M160,186.87H82.54c-8.39,0-10.55-2.2-10.56-10.67,0-18.15.07-36.31-.11-54.46,0-2-1.65-3.94-2.26-6-.79-2.7-2.43-5.79-1.77-8.18C73.17,88.34,78.9,69.22,84.62,50.11,86.49,43.86,89.71,42.18,96,44q76,22.55,152,45.18c5.74,1.71,8.2,5.29,6.19,10.42-5.61,14.33-5.81,29.18-5.45,44.21.25,10.48.05,21,0,31.47,0,9.46-2.06,11.55-11.33,11.56ZM201.48,81a2.48,2.48,0,0,0-.71-.28Q148,65,95.19,49.16c-3.68-1.11-5.07.33-6,3.63-5.23,18-10.51,36.07-16,54-1.24,4.06,0,5.49,3.93,6.61,18.69,5.37,37.29,11,55.93,16.6,16.84,5,33.7,10,49.57,14.73l5.62-4.47c.77,2.12,1.53,4.25,2.47,6.87,11.6,3.47,23.89,7,36.09,10.87,3.84,1.22,5-.46,6-3.66q7.88-27,16-54c1.07-3.56.58-5.46-3.4-6.5-8.2-2.13-16.28-4.73-24.41-7.14l-11.3-3.35-6.08,5C202.94,86.25,202.34,84.08,201.48,81ZM101.6,128.1l.2-1.83L77.06,118.9c0,19.39.19,37.87-.11,56.35-.09,5.23,1.74,6.42,6.63,6.39,35.15-.17,70.31-.09,105.47-.09h3.5l4.27-5.72,4.45,5.67h38.9c3.18,0,3.2-2.18,3.2-4.47,0-10.66,0-21.32,0-32,0-1.31-.25-2.63-.38-3.94a148.23,148.23,0,0,0-5.71,16.17c-1.92,6-5,7.62-11,5.93-4.48-1.26-8.93-2.65-13.4-4-4.2-1.22-8.42-2.4-13.35-3.8,0,3.94.26,6.94-.13,9.85-.17,1.27-1.7,2.36-2.61,3.54-.85-1.23-2.21-2.37-2.45-3.71a22.31,22.31,0,0,1-.07-7c.48-3.59-1.25-4.72-4.39-5.83-14.13-5-28.48-7.71-43.55-6.62-7,.5-14,.09-21,.09H113.37v-7.71h25l.21-1.53c-7.53-1.54-15.08-3-22.59-4.69-1.23-.27-2.25-1.44-3.48-1.87-1.93-.68-4.34-2-5.83-1.33s-2.43,3.28-2.69,5.17c-.3,2.24.54,4.61.62,6.93a25.34,25.34,0,0,1-.6,4.38l-1.11.13-5-9.78-3.38,7.74-6-5.39,7.58-4.05-9.4-4.73.39-1.67Z" transform="translate(-67.69 -43.32)"/>
    <path d="M183.28,114.26c-.81,2.65-1.39,4.52-2.18,7.08L85.68,93l1.92-7.16Z" transform="translate(-67.69 -43.32)"/>
    <path d="M81.56,106.14l2.24-7.07,95.46,28.4c-.67,2.4-1.22,4.39-2,7.13Z" transform="translate(-67.69 -43.32)"/>
    <path d="M116.39,87.67l2-7.11L187.17,101,185,108.11Z" transform="translate(-67.69 -43.32)"/>
    <path d="M191.1,87.77l-2.17,7.07L120.25,74.43c.69-2.39,1.27-4.37,2.07-7.09Z" transform="translate(-67.69 -43.32)"/>
    <path d="M106.79,84.34c-.52-3-1-6-1.85-10.61l-6.06,7-4.33-7.81,9.41-1.1-7.87-7.34.24-1.09a26,26,0,0,1,4.54.65c4.37,1.42,8.45,5.09,13.38,1.23.39-.31,1.65.47,2.51.74-.29.87-.37,2.32-.9,2.5-5.67,1.95-5.06,7.06-6,11.43A29.7,29.7,0,0,1,108,84.52Z" transform="translate(-67.69 -43.32)"/>
    <path d="M190.58,134.66c-.83-1.64-2.2-3-2-4.11a70.8,70.8,0,0,1,3.25-10.91,3.84,3.84,0,0,1,3-1.76c.64,0,2,1.68,1.88,2.32-1,4.16-2.29,8.26-3.63,12.33C192.84,133.16,191.9,133.55,190.58,134.66Z" transform="translate(-67.69 -43.32)"/>
    <path d="M201.46,94.23c.74,1.65,1.94,3,1.72,4.11A73.44,73.44,0,0,1,200,109.2c-.32.85-2,1.63-3,1.65-.62,0-1.94-1.71-1.78-2.36,1-4.14,2.3-8.21,3.65-12.25C199.07,95.63,200.05,95.28,201.46,94.23Z" transform="translate(-67.69 -43.32)"/>
    <path d="M85.17,159.19v-6.7h99.29v6.7Z" transform="translate(-67.69 -43.32)"/>
    <path d="M184.51,166.36v6.44H85.22v-6.44Z" transform="translate(-67.69 -43.32)"/>
  </g>
</svg>
