<svg xmlns="http://www.w3.org/2000/svg" viewBox="0 0 160.26 151.75">
  <g fill="#ecb84c">
    <path d="M157.14,45.13q33,0,66,0c10.16,0,13.78,3.67,13.8,13.88,0,6,.61,12.08-.22,18a23.91,23.91,0,0,1-5.07,11.38c-2,2.38-3,4.32-3,7.29q.09,47,0,94c0,7.25,0,7.26-7.21,7.26H92c-6.58,0-6.73-.15-6.73-6.72q0-47.24,0-94.46c0-3-.87-4.86-3.06-7.19a20.27,20.27,0,0,1-5-10.83c-.79-6.57-.27-13.3-.22-20,.06-8.54,4-12.53,12.58-12.55Q123.41,45.08,157.14,45.13Zm65.67,146v-82.3H91.08v82.33h8v-5.66c0-21.82.11-43.64-.08-65.45,0-4.64,1.54-6.12,6.09-6q16,.39,32,0c4.59-.12,6.06,1.35,6,6-.21,21.81-.09,43.63-.09,65.45v5.65Zm-85.28-34.73V120H104.89v71.5c10.33,0,20.29.05,30.24-.1.92,0,2.58-1.34,2.6-2.09.19-8.39.12-16.79.12-23.8-3.49-1.79-5.77-3-8-4.14ZM91,102.8H223V92.92l-11.28-5.7c-7.07,6.69-14.52,6-21.67-.31-8.17,6.61-12.45,6.6-22.15.22-8.44,6.4-13,6.4-21.85,0-9.17,6.41-12.27,6.41-22.35,0-8.2,6.43-12.91,6.43-21.53.21L91,92.87Zm8-52.22c-4,0-7.36,0-10.67,0-3.54,0-5.78,1.82-5.84,5.41-.12,7.63-.25,15.28.12,22.89.23,4.68,4,7.62,8.33,7.58,3.84,0,7.82-3.32,8-7.52C99.23,69.7,99,60.43,99,50.58Zm115.91.33c0,9.51-.17,18.77.08,28a7.79,7.79,0,0,0,7.88,7.48c4.42.06,7.54-2.28,8.13-6.52A110.17,110.17,0,0,0,231.62,65C231.68,50,231,49.38,214.94,50.91Zm-93.85-.06H104.72c0,9.76-.23,19.21.1,28.63.15,4.4,3.87,7.1,8.22,7s7.86-3,8-7.35C121.26,69.85,121.09,60.55,121.09,50.85Zm5.76,0c0,9.92-.31,19.54.14,29.12.21,4.39,3.77,6.53,8.11,6.48,4.14,0,7.58-2.24,7.77-6.32.47-9.73.15-19.49.15-29.28Zm22.05-.12c0,10-.28,19.65.14,29.24.18,4.14,3.51,6.32,7.63,6.48s7.89-1.82,8.13-5.83c.57-9.87.18-19.8.18-29.89Zm38.32.18H170.86c0,9.65-.17,19,.07,28.23.11,4.35,3.67,7.28,8,7.36s8.09-2.67,8.23-7C187.43,70.06,187.22,60.61,187.22,50.91Zm21.95,0H193c0,9.79-.21,19.23.09,28.65.13,4.21,4,7.06,8.29,7,4.06-.1,7.69-3,7.77-6.94C209.31,70.14,209.17,60.71,209.17,50.9Z" transform="translate(-76.88 -45.12)"/>
    <path d="M184.62,180.15c-9.33,0-18.67-.12-28,0-3.64.07-5-1.2-5-4.89q.15-28,0-56c0-3.86,1.38-5.26,5.28-5.23q27.75.21,55.5,0c3.9,0,5.35,1.39,5.33,5.25q-.15,28,0,56c0,3.73-1.49,4.93-5.08,4.87C203.29,180,194,180.15,184.62,180.15Zm-2.86-13.37c-1.66-.14-3.26.06-4.54-.48s-2.2-1.82-3.27-2.77c1.07-.81,2.11-2.25,3.21-2.3a146.37,146.37,0,0,1,15,0c1.08.06,2.08,1.58,3.12,2.43-1,.9-1.81,2.19-3,2.6-1.47.53-3.19.35-4.82.48V175c2.78,0,5.32.38,7.66-.14,1.43-.33,3.47-1.91,3.65-3.16,1-7.09,3.38-13.49,8.54-19-8-8.38-10.47-18.78-11.24-29.72-.18-2.54-1.06-3.52-3.59-3.47-5.32.11-10.66-.15-16,.18-1.2.07-3.19,1.86-3.29,3-1,11.11-3.64,21.52-10.19,28.8L172,174.68h9.79Zm-24.65-17.13c8.72-9.12,10.25-19.13,11-29.7h-11ZM200.8,119.8c1.52,10.76,2,21.12,11.06,29.24V119.8Zm-36.11,54.93c.73-7.67-2.51-15.07-7.47-17.32v17.32Zm47.06,0V156.29c-5.57,5.59-7.24,11.57-7.84,18.43Z" transform="translate(-76.88 -45.12)"/>
    <path d="M132,136.18c-.17,12.45,1.71,10.82-10.76,10.83s-11,1.67-11.07-11.1c0-11.81-1.17-10.75,10.6-10.72C133.69,125.23,131.86,123.83,132,136.18Zm-16.12-5.29v10.65h10.58V130.89Z" transform="translate(-76.88 -45.12)"/>
  </g>
</svg>
