<svg xmlns="http://www.w3.org/2000/svg" viewBox="0 0 158.32 161.03">
  <g fill="#ecb84c">
    <path d="M89.25,189.26c-8.54-9.82-17.19-18.85-24.78-28.7-9.63-12.49-9.29-31.7,0-44.43,7.54-10.29,17.8-15.22,30.42-12.68,13.57,2.73,21.58,12.08,24.89,25.13,3.36,13.24.64,25.39-8.56,35.8C104.1,172.49,96.93,180.58,89.25,189.26Zm0-7.58c7.25-8.34,14.4-15.8,20.66-24,8.76-11.41,8.19-28.12-.59-39.51-10.28-13.33-28.27-13.79-39.2-1-8.85,10.37-10.55,27.22-2.56,38.61C73.89,164.89,81.75,172.87,89.24,181.68Z" transform="translate(-57.38 -36.09)"/>
    <path d="M185.68,101.07c-6.48-7.59-13.3-14.66-19.05-22.52-7.29-10-6-25.06,2.17-34.25,6.41-7.19,14.38-9.95,23.83-7.12,9,2.71,16.24,12.19,17.21,22.47.73,7.75-.88,15-5.92,21-5.3,6.39-10.91,12.54-16.39,18.77C187.11,99.91,186.58,100.28,185.68,101.07Zm.23-7.48c5-5.63,9.62-10.23,13.41-15.46a31.94,31.94,0,0,0,5.27-11.63c2.09-9.57-3.43-20-11.78-23.71-7.25-3.21-15.28-1.11-20.62,5.38-6.33,7.69-7.25,19.26-1.37,27.48C175.24,81.83,180.59,87.33,185.91,93.59Z" transform="translate(-57.38 -36.09)"/>
    <path d="M140.85,125.05l-6.16-4.55c1-.78,2.31-2.41,3.07-2.2a46.06,46.06,0,0,1,7,3.13Z" transform="translate(-57.38 -36.09)"/>
    <path d="M101.19,197.11l-4.76-3.94c1.75-.76,3.51-2.16,5.24-2.11s3.27,1.57,4.91,2.45Z" transform="translate(-57.38 -36.09)"/>
    <path d="M117.45,189.7l5.15,3.61c-1.69.87-3.38,2.41-5.07,2.42s-3.42-1.51-5.13-2.36Z" transform="translate(-57.38 -36.09)"/>
    <path d="M133.7,189.7l4.89,3.74c-1.73.82-3.47,2.31-5.18,2.29s-3.33-1.6-5-2.49Z" transform="translate(-57.38 -36.09)"/>
    <path d="M149.84,189.87l4.74,3.3c-1.8.91-3.58,2.51-5.4,2.54-1.55,0-3.14-1.72-4.72-2.68Z" transform="translate(-57.38 -36.09)"/>
    <path d="M165.62,189.7l5,3.7c-1.72.84-3.45,2.34-5.16,2.33s-3.36-1.57-5-2.45Z" transform="translate(-57.38 -36.09)"/>
    <path d="M153.33,93.68l5,3.67c-1.67.86-3.34,2.38-5,2.38s-3.38-1.52-5.07-2.37Z" transform="translate(-57.38 -36.09)"/>
    <path d="M169.33,93.68l5,3.67c-1.67.86-3.34,2.38-5,2.38s-3.38-1.52-5.07-2.37Z" transform="translate(-57.38 -36.09)"/>
    <path d="M133.33,111.29,130,115.45c-1-1.78-2.64-3.49-2.88-5.37-.19-1.45,1.36-3.11,2.13-4.68Z" transform="translate(-57.38 -36.09)"/>
    <path d="M155.16,125.11l-4.55-4c1.75-.75,3.53-2.12,5.25-2s3.22,1.62,4.82,2.53Z" transform="translate(-57.38 -36.09)"/>
    <path d="M171.42,125.11l-4.83-3.86c1.71-.79,3.44-2.22,5.13-2.19s3.33,1.53,5,2.39Z" transform="translate(-57.38 -36.09)"/>
    <path d="M187.42,125.11l-4.83-3.86c1.71-.79,3.44-2.22,5.13-2.19s3.33,1.53,5,2.39Z" transform="translate(-57.38 -36.09)"/>
    <path d="M215.7,133.33l-4,5.66c-.86-1.25-2.54-2.59-2.42-3.74.23-2.11,1.52-4.11,2.36-6.16Z" transform="translate(-57.38 -36.09)"/>
    <path d="M145.3,151.42l-5.54,6c-.59-1.16-2-2.77-1.63-3.4a22.3,22.3,0,0,1,4.74-5.89c.54-.47,2.41.56,3.67.91Z" transform="translate(-57.38 -36.09)"/>
    <path d="M193.6,177.49c-2.63-2.67-4.66-4.62-6.47-6.77a12.46,12.46,0,0,1,2.05-2.45,57.24,57.24,0,0,1,6.53,5.4C195.92,173.88,194.69,175.56,193.6,177.49Z" transform="translate(-57.38 -36.09)"/>
    <path d="M142.77,98.34a64.77,64.77,0,0,1-7.53,3c-.61.17-1.72-1.41-2.6-2.19a48.54,48.54,0,0,1,6.58-4c.78-.34,2.24.9,3.38,1.41Z" transform="translate(-57.38 -36.09)"/>
    <path d="M200.88,149l-3.81-3.52a44.89,44.89,0,0,1,6.78-3.27c.75-.23,2.05,1.34,3.09,2.08Z" transform="translate(-57.38 -36.09)"/>
    <path d="M154.35,141.61l4.67,3.71c-1.8.86-3.57,2.31-5.42,2.41-1.46.09-3-1.47-4.53-2.31Z" transform="translate(-57.38 -36.09)"/>
    <path d="M169.81,149.41l-4.71-4.34c1.75-.73,3.5-2,5.26-2,1.54,0,3.09,1.37,4.64,2.14Z" transform="translate(-57.38 -36.09)"/>
    <path d="M185.74,149.14l-4.65-3.95c1.71-.77,3.44-2.17,5.13-2.13s3.19,1.59,4.78,2.47Z" transform="translate(-57.38 -36.09)"/>
    <path d="M160.25,165.68l4.85,3.74c-1.67.83-3.35,2.33-5,2.31s-3.3-1.55-5-2.41Z" transform="translate(-57.38 -36.09)"/>
    <path d="M176.3,165.62l4.79,3.63c-1.78.89-3.52,2.37-5.35,2.48-1.48.1-3.07-1.44-4.61-2.25Z" transform="translate(-57.38 -36.09)"/>
    <path d="M199.36,184.33l-5.94,6.72c-.78-.84-2.4-2.12-2.22-2.45,1.31-2.42,3-4.66,4.52-7Z" transform="translate(-57.38 -36.09)"/>
    <path d="M181.45,189.79l5,3.34c-1.79.93-3.54,2.48-5.38,2.59-1.48.1-3.08-1.53-4.63-2.39Z" transform="translate(-57.38 -36.09)"/>
    <path d="M204.73,126l-6.14-4.8c1.41-.7,3.15-2.27,4.18-1.9,2,.74,3.65,2.56,5.44,3.94Z" transform="translate(-57.38 -36.09)"/>
    <path d="M142.88,161.55c2.53,2.6,4.51,4.58,6.32,6.72a12.3,12.3,0,0,1-2.27,2.29,55.48,55.48,0,0,1-6.49-5.46C140.3,165,141.65,163.31,142.88,161.55Z" transform="translate(-57.38 -36.09)"/>
    <path d="M89.14,118.94a15.54,15.54,0,0,1,15.92,15.68,15.75,15.75,0,0,1-15.82,15.9A16,16,0,0,1,73.47,135,15.71,15.71,0,0,1,89.14,118.94Zm0,26.35A10.62,10.62,0,0,0,100,134.67,10.8,10.8,0,0,0,89.21,124,10.6,10.6,0,0,0,78.69,134.4,10.42,10.42,0,0,0,89.19,145.29Z" transform="translate(-57.38 -36.09)"/>
    <path d="M201.06,61.35a14.49,14.49,0,0,1-14.55,14.53,14.73,14.73,0,0,1-14.4-14.79,14.46,14.46,0,0,1,14.4-14.17A14.24,14.24,0,0,1,201.06,61.35Zm-14.55,9.44A9.61,9.61,0,0,0,196,61.73,9.43,9.43,0,0,0,186.8,52a9.59,9.59,0,0,0-9.62,9.48A9.8,9.8,0,0,0,186.51,70.79Z" transform="translate(-57.38 -36.09)"/>
  </g>
</svg>
