<svg xmlns="http://www.w3.org/2000/svg" viewBox="0 0 188 160">
  <path fill="#ecb84c" d="M127.11,59.11c17.14.45,34.68,5.77,48.62,19.76,22.63,22.7,17.83,56.16-10.46,74A71.73,71.73,0,0,1,124.93,164c-3.21-.06-4.87.76-6.5,3.8-5.74,10.76-14.94,16.74-27.21,17.59-1.42.1-3.6-.52-4.2-1.53s.42-2.91,1-4.29c2.24-5.11,4.95-10,6.82-15.28,1.37-3.86-.35-6.46-4.42-8.46C77.1,149.27,67,139.37,62.26,125,55.6,104.67,64.75,83,85.06,70.29,96.51,63.1,110.62,59.15,127.11,59.11ZM93.25,180.67c10.67-3.25,16-8.09,20.78-17.57,1.45-2.86,3.89-5.33,8.17-5.14,16,.7,30.73-3.18,43.67-12.84C187,129.34,190,103.28,173,84.58,149.49,58.9,101,58.75,77.46,84.3,62.21,100.83,62,122.9,77.8,139c5,5.12,11.47,9,17.8,12.55,3.92,2.18,7.17,6.57,5.9,10.83C99.69,168.46,95.93,175.3,93.25,180.67Z" transform="translate(-60.11 -59.11)"/>
  <path fill="#ecb84c" d="M214.5,213.7c-4.66-7.83-6.92-13.37-7.92-20.2-.54-3.68,1.95-5.58,5-7.42,6.37-3.82,13.24-8.34,18.36-13.55,16.9-17.21,15.8-41.12-1.89-57.58-8.53-7.94-18.77-12.42-30-15.13-1.38-.33-2.33-2.48-3.48-3.79,1.5-.65,3.18-2.12,4.47-1.83,20.88,4.73,37.87,14.85,46,35.79,7.61,19.63-.38,41.35-19.43,54.4a57.16,57.16,0,0,1-8.17,4.75c-3,2.2-5.9,3-4.28,8.53,1.32,4.49,6.65,15,7.86,18.68a.83.83,0,0,1-.52,1.19,15.2,15.2,0,0,1-4.87,1.06c-9.88,0-20.62-7.27-26.16-17.69-1.49-2.81-3-3.65-6.09-3.67-19.56-.07-37-5.75-51.26-19.74-.6-.58-1.53-1.12-1.67-1.8a25.87,25.87,0,0,1-.19-4.41c1.48.12,3.29-.25,4.38.46,2.05,1.35,3.59,3.46,5.53,5,13,10.53,28.07,15,44.61,14.36,4.77-.18,7.42.7,9.39,5.63C197.83,205.92,206.25,212.53,214.5,213.7Z" transform="translate(-60.11 -59.11)"/>
</svg>
