<svg xmlns="http://www.w3.org/2000/svg" width="12" height="12" viewBox="0 0 12 12">
    <path fill="#FFF" fill-rule="evenodd" d="M6.802 8.293L8.07 7.231l.298-1.692-.846-1.466L6 3.519l-1.521.554-.846 1.466.298 1.692 1.267 1.062h1.604zm.11.24V12H5.088V8.533l-2.219 2.644-1.398-1.173 2.256-2.689-3.437.606-.317-1.797 3.457-.61L.382 3.757l.913-1.581 3.003 1.734L3.104.629 4.82.005 6 3.249 7.18.005l1.716.624-1.194 3.28 3.003-1.734.913 1.58-3.047 1.76 3.457.61-.317 1.796-3.437-.606 2.256 2.69-1.398 1.172-2.22-2.644z"/>
</svg>
