<svg xmlns="http://www.w3.org/2000/svg" width="35" height="35">
    <path d="M17.715 2.453C7.887 2.453-.08 10.42-.08 20.248c0 4.283 1.514 8.212 4.034 11.283.389-3.114 3.499-5.747 7.86-6.995 1.593 1.485 3.65 2.386 5.901 2.386 2.197 0 4.215-.856 5.792-2.278 4.398 1.356 7.441 4.144 7.541 7.383a17.725 17.725 0 0 0 4.462-11.779c0-9.828-7.967-17.795-17.795-17.795zm0 22.361a6.357 6.357 0 0 1-3.157-.852c-2.29-1.304-3.867-3.971-3.867-7.05 0-4.358 3.15-7.903 7.024-7.903s7.025 3.545 7.025 7.903c0 3.126-1.627 5.826-3.974 7.107a6.342 6.342 0 0 1-3.05.795z"
          fill="#fff"/>
</svg>