<?xml version="1.0" encoding="utf-8"?>
<!-- Generator: Adobe Illustrator 18.1.0, SVG Export Plug-In . SVG Version: 6.00 Build 0)  -->
<svg version="1.1" id="Capa_1" xmlns="http://www.w3.org/2000/svg" xmlns:xlink="http://www.w3.org/1999/xlink" x="0px" y="0px"
	 viewBox="-1243 1245 512 512" enable-background="new -1243 1245 512 512" xml:space="preserve">
<g>
	<path fill="#7F8C8D" d="M-912.4,1363.1c-44.8,0-81.3,35.4-83.5,79.6c-15.4-19.6-39.3-32.1-65.6-32.1c-46.1,0-83.7,37.5-83.7,83.7
		s37.5,83.7,83.7,83.7c5.3,0,10.6-0.5,15.8-1.5c-1.6-6.8-2.4-13.9-2.4-21.1c0-38.5,23-71.6,56-86.5c2.7-1.2,5.5-2.4,8.3-3.3
		c0.1-0.1,0.3-0.1,0.4-0.2c9.6-3.3,19.8-5.1,30.4-5.1c38.6,0,71.9,23.2,86.8,56.4c23-15.3,37.6-41.4,37.6-69.7
		C-828.8,1400.6-866.3,1363.1-912.4,1363.1z M-1102.8,1449.7c0-3.2,2.6-5.7,5.7-5.7h13.5c2.7,0,4.6-1.6,4.8-2.3l2.6-10.2
		c0.8-3.1,3.9-4.9,6.9-4.2c3.1,0.8,4.9,3.9,4.2,6.9l-2.6,10.2c-1.6,6.2-8.4,10.9-15.9,10.9h-13.5
		C-1100.3,1455.5-1102.8,1452.9-1102.8,1449.7z M-1039.3,1473.8c-2,2.4-5.7,2.7-8.1,0.7l-12.4-10.5c-2-1.7-5.1-1.9-7.3-0.4
		l-16.3,11.2c-1,0.7-2.1,1-3.2,1c-1.8,0-3.6-0.9-4.7-2.5c-1.8-2.6-1.1-6.2,1.5-8l16.3-11.2c6.5-4.5,15.2-4,21.2,1.1l12.4,10.5
		C-1037.5,1467.8-1037.2,1471.4-1039.3,1473.8z M-1030.8,1455.5c-0.2,0-0.3,0-0.5,0l-16.6-1.5c-7.6-0.7-13.8-6-14.3-12.3l-0.7-8.3
		c-0.3-3.1,2.1-5.9,5.2-6.2c3.2-0.3,5.9,2.1,6.2,5.2l0.7,8.3c0.1,0.4,1.5,1.7,3.9,1.9l16.6,1.5c3.1,0.3,5.5,3.1,5.2,6.2
		C-1025.4,1453.2-1027.9,1455.5-1030.8,1455.5z M-954.1,1401.1c0-3.2,2.6-5.7,5.7-5.7h13.5c2.7,0,4.6-1.6,4.8-2.3l2.6-10.2
		c0.8-3.1,3.9-4.9,6.9-4.2c3.1,0.8,4.9,3.9,4.2,6.9l-2.6,10.2c-1.6,6.2-8.4,10.9-15.9,10.9h-13.5
		C-951.5,1406.8-954.1,1404.3-954.1,1401.1z M-890.5,1425.2c-2,2.4-5.7,2.7-8.1,0.7l-12.4-10.5c-2-1.7-5.1-1.9-7.3-0.4l-16.3,11.2
		c-1,0.7-2.1,1-3.2,1c-1.8,0-3.6-0.9-4.7-2.5c-1.8-2.6-1.1-6.2,1.5-8l16.3-11.2c6.5-4.5,15.2-4,21.2,1.1l12.4,10.5
		C-888.8,1419.2-888.5,1422.8-890.5,1425.2z M-882,1406.8c-0.2,0-0.3,0-0.5,0l-16.6-1.5c-7.6-0.7-13.8-6-14.3-12.3l-0.7-8.3
		c-0.3-3.1,2.1-5.9,5.2-6.2c3.2-0.3,5.9,2.1,6.2,5.2l0.7,8.3c0.1,0.4,1.5,1.7,3.9,1.9l16.6,1.5c3.1,0.3,5.5,3.1,5.2,6.2
		C-876.6,1404.6-879.1,1406.8-882,1406.8z"/>
	<path fill="#7F8C8D" d="M-953.1,1471.6c-46.1,0-83.7,37.5-83.7,83.7c0,46.1,37.5,83.7,83.7,83.7s83.7-37.5,83.7-83.7
		C-869.4,1509.1-907,1471.6-953.1,1471.6z M-995,1509.8c0-3.2,2.6-5.7,5.7-5.7h13.5c2.7,0,4.6-1.6,4.8-2.3l2.6-10.2
		c0.8-3.1,3.9-4.9,6.9-4.2c3.1,0.8,4.9,3.9,4.2,6.9l-2.6,10.2c-1.6,6.2-8.4,10.9-15.9,10.9h-13.5C-992.5,1515.6-995,1513-995,1509.8
		z M-931.5,1533.9c-2,2.4-5.7,2.7-8.1,0.7l-12.4-10.5c-2-1.7-5.1-1.9-7.3-0.4l-16.3,11.2c-1,0.7-2.1,1-3.2,1c-1.8,0-3.6-0.9-4.7-2.5
		c-1.8-2.6-1.1-6.2,1.5-8l16.3-11.2c6.5-4.5,15.2-4,21.2,1.1l12.4,10.5C-929.7,1527.9-929.4,1531.5-931.5,1533.9z M-923,1515.6
		c-0.2,0-0.3,0-0.5,0l-16.6-1.5c-7.6-0.7-13.8-6-14.3-12.3l-0.7-8.3c-0.3-3.1,2.1-5.9,5.2-6.2c3.2-0.3,5.9,2.1,6.2,5.2l0.7,8.3
		c0.1,0.4,1.5,1.7,3.9,1.9l16.6,1.5c3.1,0.3,5.5,3.1,5.2,6.2C-917.6,1513.3-920.1,1515.6-923,1515.6z"/>
</g>
</svg>
