<?xml version="1.0" encoding="utf-8"?>
<!-- Generator: Adobe Illustrator 18.1.0, SVG Export Plug-In . SVG Version: 6.00 Build 0)  -->
<svg version="1.1" id="Capa_1" xmlns="http://www.w3.org/2000/svg" xmlns:xlink="http://www.w3.org/1999/xlink" x="0px" y="0px"
	 viewBox="-1243 1245 512 512" enable-background="new -1243 1245 512 512" xml:space="preserve">
<path fill="#7F8C8D" d="M-923.6,1512.2c-12.6-17.6-17.5-42.6-21.5-62.6c-3.2-16.2-5.3-26.8-10.9-33.1c-5.2-5.9-12.2-9.3-20.3-9.9
	c0.5-5,2-11.6,5.4-18.7c7.6-15.8,18.1-23.3,18.4-23.5c5-3.4,6.4-10.2,3-15.3c-3.4-5.1-10.2-6.4-15.3-3.1c-0.6,0.4-15.5,10.5-26,32.3
	c-0.1,0.1-0.1,0.2-0.2,0.4l-2.9-2.1c-2.5-9-10.5-27.3-34-32.3c-4.5-1-9-1.4-13.2-1.4c-20.4,0-30.1,11.1-31.2,12.4
	c-2.3,2.8-3.1,6.5-2.1,10c0.8,3,8.9,29.4,31.1,34.2c3.3,0.7,6.8,1.1,10.5,1.1c0,0,0,0,0,0c10.5,0,20.9-2.9,27.3-5.1l7.5,5.4
	c-0.3,2.1-0.5,4-0.7,5.8c-7.8,0.8-14.6,4.1-19.6,9.9c-5.6,6.3-7.7,17-10.9,33.1c-3.9,20.1-8.9,45-21.5,62.6
	c-24.2,33.8-30.8,51.4-29.4,78.5c1.7,33,24.7,68.5,71.2,68.5h2.5c7.5,0,13.3-0.1,18.5-1.2c0.4-0.1,0.8-0.1,1.2,0
	c5.2,1.1,11,1.2,18.5,1.2h2.5c46.8,0,69.5-34.4,71.2-68.5C-892.8,1563.6-899.4,1546-923.6,1512.2z"/>
</svg>
