<svg xmlns="http://www.w3.org/2000/svg" class="pf-header__pf-logo" width="70" height="50" viewBox="0 0 408.7 117"><g class="pf-header__icon"><circle fill="#8bc450" cx="393.4" cy="102.8" r="14.2"/><g fill="#e8e8e8" stroke="#e8e8e8" stroke-width="4.003" stroke-miterlimit="10"><path d="M75.2 38.5c0 9.8-3.6 18.2-10.6 25.1-7 6.9-16.8 10.3-29.3 10.3-6.4 0-11.1-.2-14.2-.5V107c0 3.1-2.7 5.8-5.8 5.8H7.8c-3.1 0-5.8-2.7-5.8-5.8V9.5c0-3.1 2.5-5.8 5.8-5.8 10.4-.1 18.8-.3 25.2-.3 32 0 42.2 17 42.2 35.1zm-54 16.6c5 .5 9.5.8 13.6.8 12 0 20.3-5.9 20.3-17.6 0-11.4-6.7-17-20.1-17-2.3 0-6.9.2-13.7.3v33.5zM95.3 18.1C105.9 7.3 119.4 2 135.9 2c16.4 0 30.1 5.1 40.8 15.6s16.1 24 16.1 40.7c0 16.4-5.5 29.8-16.2 40.4s-24.3 15.9-40.7 15.9S106 109.5 95.2 99C84.4 88.6 79.1 75 79.1 58.3c.1-16.1 5.4-29.5 16.2-40.2zm14.8 67.4c7 7.3 15.6 11.1 25.9 11.1 11.2 0 20.1-3.6 26.8-10.9 6.5-7.3 9.8-16.4 9.8-27.4 0-11.2-3.4-20.4-10.4-27.6-7-7.2-15.7-10.8-26.2-10.8s-19.2 3.6-26 10.8c-7 7.2-10.4 16.4-10.4 27.6-.1 10.9 3.5 19.9 10.5 27.2zM231.7 72h-13.4v35c0 3.1-2.7 5.8-5.8 5.8h-7.6c-3.1 0-5.8-2.7-5.8-5.8V9.5c0-3.1 2.5-5.8 5.8-5.8 12.5-.2 21.7-.3 27.4-.3 26.3 0 39.6 11.2 39.6 33.7 0 8.4-2.2 15.3-6.4 20.4-4.2 5.3-9.2 8.9-14.6 10.8l27.1 35.5c.8.9 1.2 2 1.2 3.4 0 3.1-2.5 5.6-5.6 5.6h-7.2c-3.1 0-5.6-1.2-7.5-3.9L231.7 72zm-13.4-17.9h12.5c11.8 0 20.9-6.2 20.9-16.8s-6.7-15.9-20.3-15.9c-1.9 0-6.2.2-13.1.3v32.4z"/></g><path fill="#e8e8e8" stroke="#e8e8e8" stroke-width="3.988" stroke-miterlimit="10" d="M320.2 114.5c-3.2 0-5.9-2.7-5.9-5.9V21.5h-30.2c-3.2 0-5.9-2.7-5.9-5.9V9c0-3.2 2.7-5.9 5.9-5.9h80c3.2 0 5.9 2.7 5.9 5.9v6.5c0 3.2-2.7 5.9-5.9 5.9h-30.2v87.2c0 3.2-2.7 5.9-5.9 5.9h-7.8z"/><path fill="#e8e8e8" stroke="#e8e8e8" stroke-miterlimit="10" d="M390.2 7h-9.6c-.8 0-1.5-.7-1.5-1.5v-2c0-.8.7-1.5 1.5-1.5h25.6c.8 0 1.5.7 1.5 1.5v13.3c0 .8-.7 1.5-1.5 1.5h-1.7c-.8 0-1.5-.7-1.5-1.5V7h-8.1v8.6c0 .8-.7 1.5-1.5 1.5h-1.7c-.8 0-1.5-.7-1.5-1.5V7zM404 25.1c2.8 2.8 4.2 6.3 4.2 10.7 0 4.3-1.3 7.9-4.1 10.7-2.7 2.8-6.3 4.2-10.7 4.2-4.3 0-7.8-1.4-10.6-4.3-2.8-2.8-4.2-6.4-4.2-10.7 0-4.3 1.4-7.9 4.1-10.7 2.7-2.8 6.3-4.2 10.7-4.2 4.2 0 7.8 1.4 10.6 4.3zm-17.7 3.8c-1.9 1.8-2.9 4.1-2.9 6.8 0 2.9.9 5.3 2.9 7 1.9 1.7 4.3 2.6 7.2 2.6 2.9 0 5.4-.9 7.2-2.7 1.9-1.8 2.8-4.1 2.8-6.9 0-2.7-.9-5-2.8-6.8-1.9-1.8-4.3-2.7-7.2-2.7-2.9 0-5.3.9-7.2 2.7zM380.6 73.4c-.8 0-1.5-.7-1.5-1.5V57c0-.8.7-1.5 1.5-1.5h25.6c.8 0 1.5.7 1.5 1.5v2c0 .8-.7 1.5-1.5 1.5h-22.4v11.4c0 .8-.7 1.5-1.5 1.5h-1.7zM380.6 82.5c-.8 0-1.5-.7-1.5-1.5v-2c0-.8.7-1.5 1.5-1.5h25.6c.8 0 1.5.7 1.5 1.5v2c0 .8-.7 1.5-1.5 1.5h-25.6z"/></g></svg>