<?xml version="1.0" encoding="UTF-8" standalone="no"?>
<svg
   xmlns:dc="http://purl.org/dc/elements/1.1/"
   xmlns:cc="http://creativecommons.org/ns#"
   xmlns:rdf="http://www.w3.org/1999/02/22-rdf-syntax-ns#"
   xmlns:svg="http://www.w3.org/2000/svg"
   xmlns="http://www.w3.org/2000/svg"
   xmlns:sodipodi="http://sodipodi.sourceforge.net/DTD/sodipodi-0.dtd"
   xmlns:inkscape="http://www.inkscape.org/namespaces/inkscape"
   class="pf-header__pf-logo"
   width="70"
   height="21"
   viewBox="0 0 408.7 49.14"
   version="1.1"
   id="svg14"
   sodipodi:docname="portfolio_logo.svg"
   inkscape:version="0.92.3 (2405546, 2018-03-11)">
  <metadata
     id="metadata20">
    <rdf:RDF>
      <cc:Work
         rdf:about="">
        <dc:format>image/svg+xml</dc:format>
        <dc:type
           rdf:resource="http://purl.org/dc/dcmitype/StillImage" />
        <dc:title></dc:title>
      </cc:Work>
    </rdf:RDF>
  </metadata>
  <defs
     id="defs18" />
  <sodipodi:namedview
     pagecolor="#ffffff"
     bordercolor="#666666"
     borderopacity="1"
     objecttolerance="10"
     gridtolerance="10"
     guidetolerance="10"
     inkscape:pageopacity="0"
     inkscape:pageshadow="2"
     inkscape:window-width="1299"
     inkscape:window-height="713"
     id="namedview16"
     showgrid="false"
     inkscape:zoom="13.350176"
     inkscape:cx="41.136235"
     inkscape:cy="12.810268"
     inkscape:window-x="67"
     inkscape:window-y="27"
     inkscape:window-maximized="1"
     inkscape:current-layer="svg14" />
  <g
     class="pf-header__icon"
     id="g12"
     transform="translate(0.79964549,-32.812818)">
    <circle
       cx="393.39999"
       cy="102.8"
       r="14.2"
       id="circle2"
       style="fill:#8bc450" />
    <g
       stroke-miterlimit="10"
       id="g6"
       style="fill:#e8e8e8;stroke:#e8e8e8;stroke-width:4.00299978;stroke-miterlimit:10">
      <path
         d="m 75.2,38.5 c 0,9.8 -3.6,18.2 -10.6,25.1 -7,6.9 -16.8,10.3 -29.3,10.3 -6.4,0 -11.1,-0.2 -14.2,-0.5 V 107 c 0,3.1 -2.7,5.8 -5.8,5.8 H 7.8 C 4.7,112.8 2,110.1 2,107 V 9.5 C 2,6.4 4.5,3.7 7.8,3.7 18.2,3.6 26.6,3.4 33,3.4 c 32,0 42.2,17 42.2,35.1 z m -54,16.6 c 5,0.5 9.5,0.8 13.6,0.8 12,0 20.3,-5.9 20.3,-17.6 0,-11.4 -6.7,-17 -20.1,-17 -2.3,0 -6.9,0.2 -13.7,0.3 v 33.5 z m 74.1,-37 C 105.9,7.3 119.4,2 135.9,2 c 16.4,0 30.1,5.1 40.8,15.6 10.7,10.5 16.1,24 16.1,40.7 0,16.4 -5.5,29.8 -16.2,40.4 -10.7,10.6 -24.3,15.9 -40.7,15.9 C 119.5,114.6 106,109.5 95.2,99 84.4,88.6 79.1,75 79.1,58.3 79.2,42.2 84.5,28.8 95.3,18.1 Z m 14.8,67.4 c 7,7.3 15.6,11.1 25.9,11.1 11.2,0 20.1,-3.6 26.8,-10.9 6.5,-7.3 9.8,-16.4 9.8,-27.4 0,-11.2 -3.4,-20.4 -10.4,-27.6 -7,-7.2 -15.7,-10.8 -26.2,-10.8 -10.5,0 -19.2,3.6 -26,10.8 -7,7.2 -10.4,16.4 -10.4,27.6 -0.1,10.9 3.5,19.9 10.5,27.2 z M 231.7,72 h -13.4 v 35 c 0,3.1 -2.7,5.8 -5.8,5.8 h -7.6 c -3.1,0 -5.8,-2.7 -5.8,-5.8 V 9.5 c 0,-3.1 2.5,-5.8 5.8,-5.8 12.5,-0.2 21.7,-0.3 27.4,-0.3 26.3,0 39.6,11.2 39.6,33.7 0,8.4 -2.2,15.3 -6.4,20.4 -4.2,5.3 -9.2,8.9 -14.6,10.8 l 27.1,35.5 c 0.8,0.9 1.2,2 1.2,3.4 0,3.1 -2.5,5.6 -5.6,5.6 h -7.2 c -3.1,0 -5.6,-1.2 -7.5,-3.9 z M 218.3,54.1 h 12.5 c 11.8,0 20.9,-6.2 20.9,-16.8 0,-10.6 -6.7,-15.9 -20.3,-15.9 -1.9,0 -6.2,0.2 -13.1,0.3 z"
         id="path4"
         inkscape:connector-curvature="0" />
    </g>
    <path
       stroke-miterlimit="10"
       d="m 320.2,114.5 c -3.2,0 -5.9,-2.7 -5.9,-5.9 V 21.5 h -30.2 c -3.2,0 -5.9,-2.7 -5.9,-5.9 V 9 c 0,-3.2 2.7,-5.9 5.9,-5.9 h 80 c 3.2,0 5.9,2.7 5.9,5.9 v 6.5 c 0,3.2 -2.7,5.9 -5.9,5.9 h -30.2 v 87.2 c 0,3.2 -2.7,5.9 -5.9,5.9 z"
       id="path8"
       inkscape:connector-curvature="0"
       style="fill:#e8e8e8;stroke:#e8e8e8;stroke-width:3.98799992;stroke-miterlimit:10" />
    <path
       stroke-miterlimit="10"
       d="m 390.2,7 h -9.6 c -0.8,0 -1.5,-0.7 -1.5,-1.5 v -2 c 0,-0.8 0.7,-1.5 1.5,-1.5 h 25.6 c 0.8,0 1.5,0.7 1.5,1.5 v 13.3 c 0,0.8 -0.7,1.5 -1.5,1.5 h -1.7 c -0.8,0 -1.5,-0.7 -1.5,-1.5 V 7 h -8.1 v 8.6 c 0,0.8 -0.7,1.5 -1.5,1.5 h -1.7 c -0.8,0 -1.5,-0.7 -1.5,-1.5 z M 404,25.1 c 2.8,2.8 4.2,6.3 4.2,10.7 0,4.3 -1.3,7.9 -4.1,10.7 -2.7,2.8 -6.3,4.2 -10.7,4.2 -4.3,0 -7.8,-1.4 -10.6,-4.3 -2.8,-2.8 -4.2,-6.4 -4.2,-10.7 0,-4.3 1.4,-7.9 4.1,-10.7 2.7,-2.8 6.3,-4.2 10.7,-4.2 4.2,0 7.8,1.4 10.6,4.3 z m -17.7,3.8 c -1.9,1.8 -2.9,4.1 -2.9,6.8 0,2.9 0.9,5.3 2.9,7 1.9,1.7 4.3,2.6 7.2,2.6 2.9,0 5.4,-0.9 7.2,-2.7 1.9,-1.8 2.8,-4.1 2.8,-6.9 0,-2.7 -0.9,-5 -2.8,-6.8 -1.9,-1.8 -4.3,-2.7 -7.2,-2.7 -2.9,0 -5.3,0.9 -7.2,2.7 z m -5.7,44.5 c -0.8,0 -1.5,-0.7 -1.5,-1.5 V 57 c 0,-0.8 0.7,-1.5 1.5,-1.5 h 25.6 c 0.8,0 1.5,0.7 1.5,1.5 v 2 c 0,0.8 -0.7,1.5 -1.5,1.5 h -22.4 v 11.4 c 0,0.8 -0.7,1.5 -1.5,1.5 z m 0,9.1 c -0.8,0 -1.5,-0.7 -1.5,-1.5 v -2 c 0,-0.8 0.7,-1.5 1.5,-1.5 h 25.6 c 0.8,0 1.5,0.7 1.5,1.5 v 2 c 0,0.8 -0.7,1.5 -1.5,1.5 z"
       id="path10"
       inkscape:connector-curvature="0"
       style="fill:#e8e8e8;stroke:#e8e8e8;stroke-miterlimit:10" />
  </g>
</svg>
