<?xml version="1.0" encoding="iso-8859-1"?>
<!-- Generator: Adobe Illustrator 16.0.0, SVG Export Plug-In . SVG Version: 6.00 Build 0)  -->
<!DOCTYPE svg PUBLIC "-//W3C//DTD SVG 1.1//EN" "http://www.w3.org/Graphics/SVG/1.1/DTD/svg11.dtd">
<svg xmlns="http://www.w3.org/2000/svg" xmlns:xlink="http://www.w3.org/1999/xlink" version="1.1" id="Capa_1" x="0px" y="0px" width="512px" height="512px" viewBox="0 0 52.233 52.232" style="enable-background:new 0 0 52.233 52.232;" xml:space="preserve">
<g>
	<g>
		<path d="M45.99,16.26l-6.241,2.882c0,0-1.071,0-2.405,0c-0.24,0-0.466,0.134-0.686,0.326v-3.52c0-3.096-2.509-5.604-5.603-5.604    H5.602C2.507,10.345,0,12.853,0,15.949v20.335c0,3.096,2.507,5.604,5.602,5.604h0.752h9.659h15.042    c3.094,0,5.603-2.508,5.603-5.604v-3.379c0.22,0.193,0.447,0.324,0.686,0.324h2.405c0,0,2.792,1.24,6.241,2.772    c3.454,1.53,6.243-2.913,6.243-9.924C52.233,19.061,49.444,14.658,45.99,16.26z M28.344,24.313l-3.339,2.426    c-0.932,0.676-1.398,2.111-1.042,3.206l1.276,3.926c0.356,1.093-0.111,1.432-1.042,0.756l-3.339-2.426    c-0.93-0.676-2.441-0.676-3.371,0l-3.338,2.426c-0.93,0.676-1.398,0.337-1.042-0.756l1.276-3.926    c0.356-1.095-0.111-2.53-1.042-3.206l-3.338-2.426c-0.931-0.676-0.753-1.224,0.397-1.224h4.127c1.15,0,2.371-0.888,2.727-1.981    l1.274-3.925c0.357-1.095,0.933-1.095,1.288,0l1.275,3.925c0.356,1.094,1.577,1.981,2.727,1.981h4.127    C29.095,23.089,29.274,23.637,28.344,24.313z" fill="#7f8c8d"/>
	</g>
</g>
<g>
</g>
<g>
</g>
<g>
</g>
<g>
</g>
<g>
</g>
<g>
</g>
<g>
</g>
<g>
</g>
<g>
</g>
<g>
</g>
<g>
</g>
<g>
</g>
<g>
</g>
<g>
</g>
<g>
</g>
</svg>
