<?xml version="1.0" encoding="utf-8"?>
<!-- Generator: Adobe Illustrator 18.1.0, SVG Export Plug-In . SVG Version: 6.00 Build 0)  -->
<svg version="1.1" id="Capa_1" xmlns="http://www.w3.org/2000/svg" xmlns:xlink="http://www.w3.org/1999/xlink" x="0px" y="0px"
	 viewBox="-1243 1245 512 512" enable-background="new -1243 1245 512 512" xml:space="preserve">
<g>
	<g>
		<path fill="#7F8C8D" d="M-979.9,1434.5c5.6-9.3,14.4-22.6,25.5-35.3h0c9.4-10.8,27.9-24.7,27.9-24.7c2.8-2.1,2.5-5-0.7-6.5
			l-22.3-10.4c-3.2-1.5-7.4-0.4-9.5,2.4c0,0-16.5,23.7-35.9,74c-60-27.1-117,10.9-117,77c0,69,53.1,173.9,124.9,142.3
			c75.7,32.7,125-73.2,125-142.3C-862,1444.2-913.3,1405.1-979.9,1434.5z"/>
		<path fill="#7F8C8D" d="M-993.3,1412.1c3.5-0.3,6.5-3.4,6.8-6.8c0,0,2.2-27-16.6-45.8c-18.9-18.8-45.8-16.6-45.8-16.6
			c-3.5,0.3-6.5,3.4-6.8,6.8c0,0-2.3,27,16.6,45.9C-1020.4,1414.4-993.3,1412.1-993.3,1412.1z"/>
	</g>
</g>
</svg>
