<?xml version="1.0" encoding="utf-8"?>
<!-- Generator: Adobe Illustrator 18.1.0, SVG Export Plug-In . SVG Version: 6.00 Build 0)  -->
<svg version="1.1" id="Capa_1" xmlns="http://www.w3.org/2000/svg" xmlns:xlink="http://www.w3.org/1999/xlink" x="0px" y="0px"
	 viewBox="-1243 1245 512 512" enable-background="new -1243 1245 512 512" xml:space="preserve">
<g>
	<g id="b147_cherries">
		<path fill="#7F8C8D" d="M-918.5,1546.2c-2.7-0.4-5.5-0.6-8.3-0.6c-8.3,0-16.2,1.3-23.5,3.7c-24.3-39.9-54.5-100.9-44.3-144.9
			c0.8,4.6,1.8,8.9,3,13.1c3.9,12.5,10.3,22.6,18.5,31c8.3,8.3,18.4,14.8,31.2,18.5c6.5,1.8,13.5,3.1,21.5,3.2
			c8.1,0,16.9-0.6,27.7-4.5c-0.8-8.2-2-15.1-3.5-21.8c-1.6-6.6-3.6-12.6-6-18.3c-4.8-11.3-11.4-20.8-19.5-28.8
			c-8.1-8.1-17.6-14.8-29.3-19.4c-7.1-2.7-14.7-5-23.5-6c10.3-8.5,24.2-14.5,41.6-18.2c2-0.1,4-0.2,6-0.2v-10.2
			c-28.4,0-52.6,10.2-72,30.3c-45.5,47.1-52.6,135.6-53.6,172.7c-30.9,2-55.1,21.7-55.1,53.2c0,33.2,27,60.2,60.2,60.2
			c33.3,0,60.2-27,60.2-60.2c0-30.4-22.6-48.8-51.9-52.8c-1-0.1-2.1-0.2-3.1-0.3c0.9-33,7-107.2,40.3-153.3c0,0.1,0,0.1-0.1,0.2
			c-17.8,48.1,15.1,116.6,41.9,160.7c-16.3,8.8-27.1,24.5-27.1,45.6c0,33.2,27,60.2,60.2,60.2s60.2-27,60.2-60.2
			C-866.6,1568.6-889.1,1550.2-918.5,1546.2z M-987.3,1379.5c14.8,15.9,62,60.7,62,60.7c-46.2-29.9-65.3-56.2-65.3-56.2
			L-987.3,1379.5z"/>
	</g>
</g>
</svg>
