<?xml version="1.0" encoding="utf-8"?>
<!-- Generator: Adobe Illustrator 18.1.0, SVG Export Plug-In . SVG Version: 6.00 Build 0)  -->
<svg version="1.1" id="Capa_1" xmlns="http://www.w3.org/2000/svg" xmlns:xlink="http://www.w3.org/1999/xlink" x="0px" y="0px"
	 viewBox="0 0 3000 3000" enable-background="new 0 0 3000 3000" xml:space="preserve">
<g>
	<path fill="#7F8C8D" d="M2536,2156.9H336.6c-60,0-109.1-53-109.1-117.9V1012.4c0-64.9,49-117.9,109.1-117.9H2536
		c60,0,109.1,53,109.1,117.9v1026.7C2645,2103.9,2596.6,2156.9,2536,2156.9z"/>
	<g>
		<g enable-background="new    ">
			<path fill="#FFFFFF" d="M687.6,1111.6v82.4h-47.6l-2.5-34.6h-56.9v217.8l33.1,6.4v37.2H485.5v-37.2l33.1-6.4v-217.8h-56.7
				l-2.5,34.6H412v-82.4H687.6z"/>
			<path fill="#FFFFFF" d="M715.1,1383.6l22.1-3.2l94.1-268.8h63.5l93.4,268.8l22.1,3.2v37.2H904.9v-37.2l21.4-3.8l-13.6-42.5H812.5
				l-13.6,42.5l21.4,3.8v37.2H715.1V1383.6z M827.2,1291.6h70.9l-34.8-108.9H862L827.2,1291.6z"/>
			<path fill="#FFFFFF" d="M1201.6,1159.4l-0.8,93c-0.7,60-9.4,103.1-26.2,129.2c-16.8,26.1-42.8,39.2-78,39.2h-15.3v-47.6h8.3
				c19.2-1.6,32.1-10.6,38.6-27.3c6.5-16.6,10-47.8,10.6-93.5l1.1-97l-32.5-6.4v-37.4h243.1h33.1v37.4l-33.1,6.4v221.9l33.1,6.4
				v37.2h-128v-37.2l33.1-6.4v-217.8H1201.6z"/>
			<path fill="#FFFFFF" d="M1738.2,1268.5c0,45.3-13,82.7-38.9,112.3c-25.9,29.6-59.8,44.4-101.7,44.4c-41.8,0-75.5-14.8-101.2-44.4
				c-25.7-29.6-38.5-67-38.5-112.3v-4.7c0-45,12.8-82.4,38.4-112.1c25.6-29.7,59.3-44.6,101.1-44.6c41.9,0,75.8,14.9,101.8,44.6
				c26,29.7,39,67.1,39,112.1V1268.5z M1676.4,1263.4c0-32-6.7-58-20-77.9c-13.3-20-33-29.9-59-29.9c-26,0-45.5,9.9-58.3,29.7
				c-12.8,19.8-19.2,45.9-19.2,78.1v5.1c0,32.6,6.5,58.8,19.4,78.7c13,19.9,32.4,29.8,58.3,29.8c26.2,0,45.9-9.9,59-29.8
				c13.2-19.9,19.7-46.1,19.7-78.7V1263.4z"/>
			<path fill="#FFFFFF" d="M1811.7,1149v-37.4h128v37.4l-33.1,6.4v89.2h126.1v-89.2l-33.1-6.4v-37.4h33.1h61.8h33.1v37.4l-33.1,6.4
				v221.9l33.1,6.4v37.2h-128v-37.2l33.1-6.4v-84.9h-126.1v84.9l33.1,6.4v37.2h-128v-37.2l32.9-6.4v-221.9L1811.7,1149z"/>
		</g>
		<g>
			<rect x="443.8" y="1639.4" fill="#FFFFFF" width="613.8" height="43.2"/>
			<rect x="1167.1" y="1639.4" fill="#FFFFFF" width="515.4" height="43.2"/>
			<rect x="443.8" y="1763.6" fill="#FFFFFF" width="412.9" height="43.2"/>
			<rect x="960.6" y="1763.6" fill="#FFFFFF" width="456.2" height="43.2"/>
			<rect x="1519.3" y="1763.6" fill="#FFFFFF" width="163.9" height="43.2"/>
			<rect x="443.8" y="1894" fill="#FFFFFF" width="468" height="43.2"/>
			<rect x="1033.9" y="1894" fill="#FFFFFF" width="648.7" height="43.2"/>
		</g>
		<g>
			<g>
				<g>
					<g>
						<path fill="#FFFFFF" d="M2043.1,1792.8c6.3,4.9,7,3.5,13.9,0.7c6.3-2.1,14.6-20.2,20.2-25.8c8.4-7.7,18.1-14.6,27.2-21.6
							c11.9-9.1,23.7-21.6,36.3-29.3c6.3-9.8,9.8-11.2,9.1-3.5c-3.5,7.7-6.3,16-9.8,23.7c-11.9,29.3-24.4,58.6-35.6,87.9
							c-4.2,11.2-37.7,73.2-4.9,70.4c16-1.4,39.1-32.1,49.5-43.2c20.2-20.9,39.1-43.2,56.5-66.3c-3.5-2.1-7.7-4.2-11.2-6.3
							c-17.4,29.3-30,59.3-39.8,92.1c-1.4,4.9,4.9,10.5,9.1,7c33.5-25.8,65.6-52.3,96.3-80.9c-3.5-0.7-7-2.1-10.5-2.8
							c5.6,28.6,36.3,69.7,61.4,31.4c-4.2-1.4-7.7-2.1-11.9-3.5c2.1,21.6,16.7,18.8,34.2,17.4c19.5-1.4,20.9,9.8,36.3,12.6
							c11.9,2.1,25.8-10.5,37-11.2c8.4-0.7,8.4-13.3,0-12.6c-7,0.7-10.5,2.8-17.4,4.2c-2.1,1.4-4.9,2.8-7,3.5
							c-10.5,2.1-17.4-1.4-22.3-9.1c-7.7-2.8-48.1-6.3-48.1-5.6c-0.7-6.3-8.4-9.1-11.9-3.5c-24.4,0-37.7-9.8-38.4-28.6
							c-0.7-4.9-7.7-5.6-10.5-2.8c-30,27.2-61.4,53.7-93.5,78.8c2.8,2.1,6.3,4.9,9.1,7c9.1-31.4,21.6-60.7,38.4-89.3
							c4.2-7-6.3-12.6-11.2-6.3c-19.5,25.8-39.8,50.2-62.8,72.5c-2.1,2.1-24.4,25.1-26.5,24.4c-8.4-2.8,3.5-24.4,5.6-30
							c9.8-27.9,21.6-55.1,32.8-82.3c6.3-16,27.2-47.4,24.4-63.5c-4.2-21.6-21.6-4.9-31.4,3.5c-18.8,16.7-39.1,32.1-58.6,47.4
							c-6.3,4.9-16.7,11.2-20.9,18.1c-4.2,7-2.8,14.6-7,11.9C2043.1,1776.8,2036.8,1788,2043.1,1792.8L2043.1,1792.8z"/>
					</g>
				</g>
				<g>
					<g>
						<path fill="#FFFFFF" d="M2053.6,1786.6c0.7-3.5,6.3-6.3,9.1-8.4c3.5-2.8,7.7-5.6,11.2-9.1c7.7-6.3,14.6-12.6,23.7-15.3
							c7.7-2.1,4.9-14.6-3.5-12.6c-11.2,2.8-19.5,10.5-28.6,17.4c-7.7,6.3-23,13.9-24.4,23.7
							C2039.6,1791.5,2052.2,1794.9,2053.6,1786.6L2053.6,1786.6z"/>
					</g>
				</g>
			</g>
			<rect x="2029.2" y="1940" fill="#FFFFFF" width="395.5" height="9.8"/>
		</g>
	</g>
	<g>
		<g>
			<path fill="#2C3E50" d="M2815.9,1358.6c-18.2,17.8-42.1,24.4-68.1,26.7l102.6,138.3l9-35.4c1.4-6.3,7-11,13.6-11.3l53-4.1
				l-96.9-130.9C2825.1,1348.2,2821,1353.6,2815.9,1358.6z"/>
			<path fill="#2C3E50" d="M2458.8,1452.3c-6.8-1.6-13.5-4.5-19.3-8.2l-20.4,161.8l48.1-22.6c5.8-2.7,12.9-1.5,17.3,3.3l25,26.4
				l21.6-171.3c-9.2,4.1-17.8,7.2-26.7,9.6C2489.5,1455.6,2473.9,1456.3,2458.8,1452.3z"/>
			<path fill="#2C3E50" d="M2421.7,806c20.4-0.1,40.4-0.5,57.3-5c17-4.5,34.6-13.7,52.4-23.5l-8.8-54.9c-0.7-4.8-3.1-8.6-7.1-10.7
				c-3.7-2.6-8.5-3.2-12.8-2.3l-89.2,23.3c-4.3,0.9-7.9,4.1-10,8.1c-2.1,4-2.7,8.8-1,12.8L2421.7,806z"/>
			<path fill="#2C3E50" d="M2810.5,943.4c-21.2-11.7-43.2-24.5-59-40.4c-16.6-17-29-39.4-41.7-61.3c-18.8-33.4-36.6-65-64.5-72.6
				c-26.1-7.3-56.9,10.3-89.8,29.3c-22.7,12.9-45.4,25.9-69.2,32.5c-23.8,6.6-50.3,6.1-76.3,5.9c-23.9-0.4-46.9-0.4-65.9,4.3
				c-10.4,2.8-19.8,7.4-26.5,14.1c-20.3,20.6-20.5,56.1-20.4,94.9c0,25.5,0.1,50.9-6.2,73.8c-6.2,21.6-19,43.5-31.7,64.2
				c-20,33.4-39,64.8-31.5,94.2c7.5,29.4,40,47.7,73.9,66.7c21.2,11.7,43.2,24.5,59,40.4c16.6,17,29,39.4,41.7,61.3
				c18.8,33.4,36.6,65,64.5,72.6c26.1,7.3,56.9-10.3,89.8-29.3c22.7-12.9,45.4-25.9,69.2-32.5c23.8-6.6,50.3-6.1,76.3-5.9
				c37.6-0.1,72.9,0.6,92.6-18.9c20.3-20.6,20.5-56.1,20.4-94.9c0-25.5-0.1-50.9,6.2-73.8c6.2-21.6,19-43.5,31.7-64.2
				c20-33.4,39-64.8,31.5-94.2C2876.4,980.4,2844.4,962.4,2810.5,943.4z M2716.4,1053.9c-2.1-8.1,2.8-16.3,10.9-18.5
				c8.1-2.1,16.3,2.8,18.5,10.9c27.3,104.7-35.2,211.9-140.1,239.7c-8.1,2.1-16.3-2.8-18.5-10.9s2.8-16.3,10.9-18.5
				C2686.6,1233.6,2740,1142.6,2716.4,1053.9z M2395.3,1138.4c2.1,8.1-2.8,16.3-10.9,18.5c-8.1,2.1-16.3-2.8-18.5-10.9
				c-27.3-104.7,35.2-211.9,140.1-239.7c8.1-2.1,16.3,2.8,18.5,10.9c2.1,8.1-2.8,16.3-10.9,18.5
				C2425.1,958.6,2372.2,1050,2395.3,1138.4z M2806.4,1039.9c29.3,131.2-48.3,263.6-177.1,301.8c-140.2,41.8-286.7-41.9-322.1-183.3
				c-32.9-130.5,47.7-271,177-308.9c34.5-9.9,68.8-12.3,101.8-8.4c10.8,1.2,16.6,13.2,11.2,22.4l-0.3,0.5c-2.9,5.5-8.7,8.2-14.8,7.5
				c-29.9-3.6-61.8-1.2-93,8.6c-112.9,34.5-180.6,151.7-154.3,266.7c29.4,127.4,160.4,204.2,285.6,166.7
				c113.9-33.9,182.6-151.9,155.6-267.9c-15.9-68.1-60.5-121.4-118.2-151c-8-4.2-10.8-13.3-6.2-21c4.2-6.7,12.5-9.3,19.8-6.2
				C2737.4,900.7,2788.7,961.9,2806.4,1039.9z"/>
			<path fill="#2C3E50" d="M2825.6,917c-20.7-11.5-39.7-22.7-52.8-35.3c-13.9-13.6-24.8-34-36.8-54.9c-21.2-37.2-43-76-82.3-87
				c-32.4-8.7-63.6,4.9-94.7,21.7l-7-43.8c-2-13.2-9.6-24.1-20.3-31.6c-11-7-24.3-9.5-37-6l-89.2,23.3
				c-12.7,3.5-23.4,11.9-29.4,23.4c-6,11.5-6.8,25.1-2.5,37.5l15.4,41.1c-35.3,0.6-69.7,4.2-93.3,27.5
				c-29.3,29.2-29.4,73.1-29.2,116.5c0.1,24.2,0.1,47.2-5.3,66c-4.9,17.8-16.1,36.8-28.3,56.5c-21.1,35.4-45.6,76.1-34.7,117.4
				c11.1,42.1,52,64.8,87.7,85.4c20.7,11.5,39.7,22.7,52.8,35.3c13.9,13.6,24.8,34,36.8,54.9c10.7,19.6,22,39.5,36,55.1l-26.6,208.8
				c-0.9,5.3,1.8,11.1,6,14c4.7,3.1,10.3,3.5,15.1,1.5l63.1-29.3l39.3,41.6c3.7,3.9,9.2,5.5,15.1,4.1l0.8-0.2
				c5.3-1.7,9.7-6.4,10.3-12.4l28.4-223.1c2.8-1.7,5.4-2.9,8.2-4.6c20.9-12,41.8-23.9,61.8-29.4c20-5.4,44.7-5.2,68.2-5
				c3,0.3,6.3,0.1,8.8,0.2l134.3,181c3.4,4.4,9.2,6.7,14.8,5.8l0.8-0.2c5.3-1.7,9.4-5.9,10.8-10.9l13.9-55.7l69.4-5
				c5.3-0.4,10.2-3.6,12.8-8.6c2.1-5.3,1.7-10.6-1.5-15.4l-125.5-168.8c3.9-20.9,4.3-43.5,4-66c-0.1-24.2-0.1-47.2,5.3-66
				c4.9-17.8,16.1-36.8,28.3-56.5c21.1-35.4,45.6-76.1,34.7-117.4C2902,960.7,2861.3,937.5,2825.6,917z M2402.7,741.4
				c2.1-4,5.7-7.2,10-8.1l89.2-23.3c4.3-0.9,9.1-0.3,12.8,2.3c3.7,2.6,6.2,6.4,7.1,10.7l8.8,54.9c-17.3,10-35.7,19.5-52.4,23.5
				c-17,4.5-36.9,4.9-57.3,5l-19.2-52.1C2400.8,749.9,2400.6,745.4,2402.7,741.4z M2509.5,1613.1l-25-26.4c-4.4-4.9-11.5-6-17.3-3.3
				l-48.1,22.6l20.4-161.8c5.7,3.6,12,6.3,19.3,8.2c15.6,4.3,30.7,3.3,45.7-0.9c8.9-2.4,17.8-6,26.7-9.6L2509.5,1613.1z
				 M2925.9,1472.9l-53,4.1c-6.6,0.4-12.2,5.1-13.6,11.3l-9,35.4l-102.6-138.3c26-2.3,50.3-8.6,68.1-26.7
				c5.1-4.9,9.3-10.4,12.9-16.2L2925.9,1472.9z M2852.9,1104.3c-12.7,20.7-25.5,42.6-31.7,64.2c-6.2,22.8-6.5,48.8-6.2,73.8
				c0.3,38.3,0.4,74.7-20.4,94.9c-19.5,19.1-55.1,18.9-92.6,18.9c-26-0.2-52.7-0.2-76.3,5.9c-23.6,6.1-47,19.3-69.2,32.5
				c-32.6,18.6-63.5,36.1-89.8,29.3c-27.8-7.6-45.7-39.2-64.5-72.6c-12.2-21.7-25.1-44.3-41.7-61.3c-15.8-15.9-37.8-28.7-59-40.4
				c-33.9-19-65.9-37-73.9-66.7c-7.5-29.4,11.5-60.8,31.5-94.2c12.7-20.7,25.5-42.6,31.7-64.2c6.2-22.8,6.5-48.8,6.2-73.8
				c-0.3-38.3-0.4-74.7,20.4-94.9c6.9-7.2,16.1-11.3,26.5-14.1c18.5-5,41.9-4.8,65.9-4.3c26,0.2,52.7,0.2,76.3-5.9
				c23.6-6.1,47-19.3,69.2-32.5c32.6-18.6,63.5-36.1,89.8-29.3c27.8,7.6,45.7,39.2,64.5,72.6c12.2,21.7,25.1,44.3,41.7,61.3
				c15.8,15.9,37.8,28.7,59,40.4c33.9,19,65.9,37,73.9,66.7C2891.9,1039.5,2872.9,1070.9,2852.9,1104.3z"/>
		</g>
	</g>
</g>
</svg>
